<?xml version="1.0" encoding="UTF-8" standalone="no"?>
<!-- Generator: Adobe Illustrator 15.1.0, SVG Export Plug-In . SVG Version: 6.00 Build 0)  -->
<svg xmlns:dc="http://purl.org/dc/elements/1.1/" xmlns:cc="http://creativecommons.org/ns#" xmlns:rdf="http://www.w3.org/1999/02/22-rdf-syntax-ns#" xmlns:svg="http://www.w3.org/2000/svg" xmlns="http://www.w3.org/2000/svg" xmlns:sodipodi="http://sodipodi.sourceforge.net/DTD/sodipodi-0.dtd" xmlns:inkscape="http://www.inkscape.org/namespaces/inkscape" version="1.2" id="Layer_1" x="0px" y="0px" width="728.87714" height="352.54599" viewBox="0 0 728.87713 352.546" xml:space="preserve" inkscape:version="0.48.2 r9819" sodipodi:docname="Zdzisław Beksiński-signature.svg"><metadata id="metadata25"><rdf:RDF><cc:Work rdf:about=""><dc:format>image/svg+xml</dc:format><dc:type rdf:resource="http://purl.org/dc/dcmitype/StillImage"/></cc:Work></rdf:RDF></metadata><defs id="defs23"/><sodipodi:namedview pagecolor="#ffffff" bordercolor="#666666" borderopacity="1" objecttolerance="10" gridtolerance="10" guidetolerance="10" inkscape:pageopacity="0" inkscape:pageshadow="2" inkscape:window-width="1280" inkscape:window-height="1002" id="namedview21" showgrid="false" fit-margin-top="50" fit-margin-left="50" fit-margin-right="50" fit-margin-bottom="50" inkscape:zoom="0.19799156" inkscape:cx="239.95732" inkscape:cy="446.65759" inkscape:window-x="-8" inkscape:window-y="-8" inkscape:window-maximized="1" inkscape:current-layer="Layer_1"/>
<g id="g3" transform="translate(-473.84856,-1025.4381)">
	<g id="g5">
		<path d="m 649,1219.94 c 0.275,-12.513 -5.691,-26.382 4,-34 13.456,3.544 8.032,25.969 14,37 2.683,5.317 7.807,8.193 12,12 24.095,2.739 45.069,-5.338 56,-19 0,-5.333 0,-10.667 0,-16 -21.148,-3.661 -70.366,8.998 -68,-18 18.733,1.074 45.965,0.64 66,0 2.606,-14.254 0.551,-31.621 -13,-38 -17.609,2.725 -25.133,15.533 -45,16 -2.718,-2.615 -3.468,-7.198 -5,-11 17.317,-8.35 31.61,-19.723 54,-23 26.879,5.584 31.257,34.559 27,66 5.587,-1.87 10.588,-12.653 15,-19 17.901,-12.433 27.302,-33.365 48,-43 3.199,2.468 7.104,4.229 9,8 -8.064,13.603 -22.893,20.44 -32,33 -9.676,11.99 -20.446,22.887 -27,38 4.678,9.989 18.864,10.469 28,16 10.743,1.812 21.752,12.145 33,7 -0.843,-16.416 -6.14,-33.069 -4,-54 10.601,-22.399 27.444,-38.556 49,-50 9.15,-0.151 16.723,1.278 20,7 0.485,5.152 -0.952,8.381 -3,11 -5.746,0.08 -7.798,-3.536 -14,-3 -20.852,8.148 -31.395,26.605 -38,49 -2.095,21.596 9.36,34.411 7,53 -2.211,0.789 -2.502,3.498 -4,5 -35.898,3.822 -59.11,-13.5 -85,-23 -7.56,21.636 8.471,73.19 -17,80 -7.362,-18.915 3.726,-39.173 -1,-66 -20.558,6.06 -51.79,21.094 -71,5 -11.901,35.433 -32.666,62.001 -60,82 -4.35,0.017 -8.998,0.331 -12,-1 0.542,-21.59 29.129,-31.2 37,-52 2.592,-1.408 4.617,-3.384 7,-5 2.25,-6.75 7.526,-10.474 10,-17 0,-3.333 0,-6.667 0,-10 -8.539,-10.794 -24.198,-14.469 -34,-24 -3.402,-8.598 -7.506,-16.494 -9,-27 3.095,-11.572 6.14,-23.193 11,-33 10.115,-15.552 27.165,-24.168 31,-46 -2.292,-23.217 -39.344,-23.533 -56,-13 3.51,49.699 -12.227,101.633 -9,154 -2.643,8.356 1.291,23.291 -3,30 -5.191,1.588 -12.706,-2.43 -17,-5 -2.147,-53.325 9.548,-105.521 10,-168 -16.923,2.077 -23.778,14.222 -35,22 -4.413,-1.587 -9.006,-2.994 -11,-7 -0.591,-4.257 0.719,-6.614 1,-10 18.941,-13.393 36.831,-27.835 62,-35 2.51,-1.49 5.508,-2.492 7,-5 28.027,-2.517 61.04,4.121 70,27 2.098,43.764 -41.366,49.725 -41,95 4.28,11.72 14.431,17.569 26,22 z" id="path7" inkscape:connector-curvature="0" style="fill-rule:evenodd"/>
		<path d="m 928,1146.94 c -3.051,-16.392 -1.868,-36.109 0,-53 3.145,-1.222 5.291,-4.037 9,-2 3.105,10.301 6.268,51.554 -9,55 z" id="path9" inkscape:connector-curvature="0" style="fill-rule:evenodd"/>
		<path d="m 1043,1102.94 c -1.339,9.994 -12.152,10.514 -19,15 -5.749,5.584 -13.178,9.489 -20,14 -4.423,5.578 -9.83,10.169 -13,17 -0.473,28.473 20.777,35.222 30,54 -0.783,5.783 1.451,8.549 1,14 -3.592,9.408 -12.111,13.889 -22,17 -16.204,-1.462 -40.223,4.889 -44,-9 13.935,-8.064 46.861,2.861 52,-14 -5.647,-16.02 -18.396,-24.937 -26,-39 0.295,-3.962 -1.222,-6.112 -3,-8 1.272,-3.774 -2.339,-8.172 -1,-15 11.581,-25.086 33.151,-40.183 60,-50 1.991,1.009 4.271,1.728 5,4 z" id="path11" inkscape:connector-curvature="0" style="fill-rule:evenodd"/>
		<path d="m 1104,1106.94 c -3.091,20.576 -20.37,26.963 -27,44 -11.293,8.707 -17.75,22.25 -24,36 1.123,2.544 2.456,4.877 4,7 27.339,0.78 31.727,-25.964 56,-25 5.057,2.944 9.891,6.11 14,10 6.679,27.86 -6.091,57.268 -13,81 -1.182,-1.151 -3.535,-1.132 -6,-1 -3.471,-23.946 14.559,-52.511 4,-74 -22.325,4.341 -26.741,26.592 -57,23 -5.33,-0.336 -6.492,-4.842 -11,-6 -3.74,12.926 4.006,37.34 -8,42 -11.418,-33.404 -2.157,-77.104 -8,-114 3.756,-2.083 7.494,-4.271 12,-3 7.072,12.649 2.239,30.982 4,48 8.672,-11.328 14.878,-25.122 24,-36 9.098,-10.902 17.252,-22.748 27,-33 0.973,-0.027 0.775,-1.224 1,-2 3.705,-0.039 5.797,1.536 8,3 z" id="path13" inkscape:connector-curvature="0" style="fill-rule:evenodd"/>
		<path d="m 1149,1127.94 c -7.249,-1.084 -11.703,-4.963 -12,-13 4.842,-20.5 23.602,0.649 12,13 z" id="path15" inkscape:connector-curvature="0" style="fill-rule:evenodd"/>
		<path d="m 916,1152.94 c 9.555,1.779 8.451,14.216 9,25 11.782,6.218 12.437,23.563 28,26 6.764,-4.497 -3.485,-28.632 6,-33 12.007,3.998 11.915,37.586 4,46 -20.631,1.965 -28.216,-9.117 -39,-17 -2.469,9.123 2.101,19.509 -2,27 -6.111,4.027 -8.507,-3.189 -12,-5 -3.423,-22.022 -0.979,-41.562 0,-65 2.711,-0.622 2.489,-4.178 6,-4 z" id="path17" inkscape:connector-curvature="0" style="fill-rule:evenodd"/>
		<path d="m 903,1177.94 c -1.67,16.664 -6.259,30.408 -7,48 -5.03,1.292 -7.453,2.639 -12,0 -2.27,-17.072 1.472,-36.428 6,-50 1.376,-2.991 7.24,-2.088 10,-1 -0.182,2.182 0.818,3.182 3,3 z" id="path19" inkscape:connector-curvature="0" style="fill-rule:evenodd"/>
	</g>
</g>
</svg>