<svg id="Calque_1" data-name="Calque 1" xmlns="http://www.w3.org/2000/svg" viewBox="0 0 310 310"><g id="Page-1"><path id="mask-09" d="M8,180a8,8,0,1,0,8,8A8,8,0,0,0,8,180Zm0-65a8,8,0,1,0,8,8A8,8,0,0,0,8,115ZM122,294a8,8,0,1,0,8,8A8,8,0,0,0,122,294ZM57.5,41A16.5,16.5,0,1,0,74,57.5,16.55,16.55,0,0,0,57.5,41Zm0,65A16.5,16.5,0,1,0,74,122.5,16.55,16.55,0,0,0,57.5,106Zm0,65A16.5,16.5,0,1,0,74,187.5,16.55,16.55,0,0,0,57.5,171ZM302,131a8,8,0,1,0-8-8A8,8,0,0,0,302,131ZM188,16a8,8,0,1,0-8-8A8,8,0,0,0,188,16ZM122.5,74A16.5,16.5,0,1,0,106,57.5,16.55,16.55,0,0,0,122.5,74ZM122,16a8,8,0,1,0-8-8A8,8,0,0,0,122,16Zm65.5,58A16.5,16.5,0,1,0,171,57.5,16.55,16.55,0,0,0,187.5,74ZM57.5,237A16.5,16.5,0,1,0,74,253.5,16.55,16.55,0,0,0,57.5,237Zm130-139A24.5,24.5,0,1,0,212,122.5,24.46,24.46,0,0,0,187.5,98Zm65,73A16.5,16.5,0,1,0,269,187.5,16.55,16.55,0,0,0,252.5,171Zm0,66A16.5,16.5,0,1,0,269,253.5,16.55,16.55,0,0,0,252.5,237Zm0-131A16.5,16.5,0,1,0,269,122.5,16.55,16.55,0,0,0,252.5,106ZM302,180a8,8,0,1,0,8,8A8,8,0,0,0,302,180ZM252.5,41A16.5,16.5,0,1,0,269,57.5,16.55,16.55,0,0,0,252.5,41Zm-130,122A24.5,24.5,0,1,0,147,187.5,24.46,24.46,0,0,0,122.5,163Zm0,74A16.5,16.5,0,1,0,139,253.5,16.55,16.55,0,0,0,122.5,237Zm0-139A24.5,24.5,0,1,0,147,122.5,24.46,24.46,0,0,0,122.5,98Zm65,139A16.5,16.5,0,1,0,204,253.5,16.55,16.55,0,0,0,187.5,237Zm.5,57a8,8,0,1,0,8,8A8,8,0,0,0,188,294Zm-.5-131A24.5,24.5,0,1,0,212,187.5,24.46,24.46,0,0,0,187.5,163Z" transform="translate(0 0)"/></g></svg>