<svg id="Calque_1" data-name="Calque 1" xmlns="http://www.w3.org/2000/svg" xmlns:xlink="http://www.w3.org/1999/xlink" viewBox="0 0 632.56 649.87"><defs><style>.cls-1{fill:none;}.cls-2{clip-path:url(#clip-path);}</style><clipPath id="clip-path" transform="translate(171.69 165.57)"><rect id="clipping_path" data-name="clipping path" class="cls-1" y="-0.06" width="310" height="310" rx="155"/></clipPath></defs><g class="cls-2"><g id="Page-1"><g id="mask-09"><path d="M8,6.24,7.85,186.46-16.37,65.9,46.06,312.51-43.27,65.05-54.16,72.4-115.61,3.88l27.86,67.71-19,1.61L-148.9,58.87,175.37,300.36,82,227.78l90.74,28.93L49.46,200.62,22,190.74l160.52,14.38-1.72-17.18-352.46,17.69,152.9-12.34,63.51-16.57L-61.44,216.9l169.73-83,6.83-18,6.49-21.54L-37.34,233.29l84-92.35L-.74,201l46-82.33L-53.35,335l44.79-92.77L19.69,129.49l-30,244.38L8,386.76-3.94,66.58,25,272.87-6.42,140.8-39.31,74.66,17.55,205.74,88.81,308.27-90.36,68.47-3.29,176.66,89,254.58-71.83,134.32,116,246l-178-87.29,32.05,17.62L133,212.91,3.2,187.47l38.38.47,91.55-12.33-264.58,40.22,187.9-42.67-206.79,80.91L133.55,120.38l-88,42.33,52.55-48.95-200.93,185,236-263L29.29,156.2l61-121.13L-25.66,268.54l-1.59,34.77,3.5,43.46L19.71,69Zm0-65L7.85,121.46-16.37.9,46.06,247.51-43.27.05-54.16,7.4l-61.46-68.51,27.86,67.7-19,1.61L-148.9-6.13,175.38,235.35,82,162.78l90.75,28.92L49.46,135.62,22,125.74l160.52,14.38-1.72-17.18-352.46,17.69,152.9-12.34,63.51-16.58L-61.44,151.9l169.73-83,6.83-18,6.48-21.54L-37.34,168.29l84-92.35L-.74,136l46-82.33L-53.34,270l44.78-92.77L19.69,64.49l-30,244.38L8,321.76-3.94,1.58,25,207.87-6.42,75.8-39.31,9.66,17.55,140.74,88.81,243.28-90.35,3.47-3.29,111.66,89,189.58-71.83,69.32,116,181.05l-178-87.3,32.05,17.61L133,147.91,3.2,122.47l38.38.47,91.55-12.33-264.58,40.21,187.9-42.66-206.79,80.91L133.56,55.39l-88,42.32L98.15,48.76l-200.94,185,236-263L29.29,91.2l61-121.13L-25.66,203.54l-1.59,34.77,3.5,43.46L19.71,4Zm114,194-.2,164.69L99.6,189.75l57,225.36L74.89,189l-10,6.74L8.66,133.19l25.41,61.9-17.43,1.52-38.54-13,296.27,220.7L189,338l82.89,26.49L159.23,313.33l-25.14-9,146.66,13.2-1.58-15.63-322,16.23L96.85,307l58-15.08-97,36.79L213,252.92l6.27-16.36,6-19.63L80.08,343.87l76.83-84.35-43.28,54.92,42.13-75.19L65.69,437l41-84.74,25.87-103L105.21,472.52,122,484.3,111.16,191.74l26.47,188.48L109,259.52,79,199.07l52,119.75,65.17,93.65L32.57,193.31l79.61,98.81,84.38,71.15L49.63,253.33l171.69,102L58.75,275.53l29.31,16L236.9,324.89,118.3,301.58l35.08.36L237,290.63-4.75,327.26l171.68-39L-22,362.09l259.39-122.2-80.41,38.62,48-44.79-183.64,169,215.6-240.4-95,110.06,55.62-110.72L91.51,375,90,406.7l3.14,39.69,39.62-253.78ZM57.5-117.4,57,46.89,45.49-64.62,73.6,165.78,31.94-70.62l-5.88,3.15-30.25-77.2,12,64.21L-3-87.59l-23.1-30.49L140.28,211.16l-47.94-96,50.79,69.73L75.64,81.75,59.93,60.36,158.75,169l3.62-6.67L-71.2-59.33,31.16,35.8l47,37.08L-7.09,14.12l145.61,92.23L153,108.87l17.29,2.34L-5,31.43,101,73.18,35,50.6l83.12,22.14L-94,27.2-2.79,48.49,102.42,61.87-121.8,48.67l-11.14,8.77,292.28-5L-30.22,66.08,92.84,52.19l65.37-14.87L30.71,64.17-77.68,98.69l259.21-86L62.41,55.35l-99.57,47.14L126.57,20.22-46.16,119.9,107.18,24,79.06,41.35-39.33,137.11,53.94,60.66,29.36,85.59l-55,63.54L134.05-35.55,24.46,101.87,139.6-64.75-14.32,176.65l47.94-74.73L7.82,161.86,109-65.85l-115.5,301L44.67,99.59l-28,120.24L71.31-11.6l1-30.61L71.06-80.32,51.72,175.42,57.5-84.84l2.73,198.1L40.28-117.55,56.84,53l-.05.94L31.87-44.23,45,16.74,8.38-78.74l95.46,247.35,12.65,12.77L81.33,101.83l13.19,17.09L17.71-1.73l-65.37-82L79.33,84l75.4,80.57L-11.36-11.4-52.67-42.55l212.27,184L226,182.85-5.18,15.31l136.51,86.6L85.54,72.48-60.34,1.26l21.39,15.89L-100.87.33,109.42,73.27l36.3,6.37,51.77,5.75L-75.44,37.68,108.33,62.45l6.28-2.21L47,57.45l189.6-8.77L230,40.47l14.33-10.78-91.78,8.79-237.83,55L86.42,48.65l56.63-22L-21.22,90.35l-68.2,37.15L47.38,63l-64.31,39.44L182-26.16l-256,181.53L23.83,85.19l127.62-113L76.58,38.36-58.71,185.49,176.12-86.76,58.27,56.35,73.58,33.43,137.43-75.22-21.39,204l54.92-96.32L17.24,153.81l101.53-266.5L99-78.7l.52-30.91L24.27,223.69,53.73,82.74,76-130.09,62-35.26Zm0,66.29-.52,163L45.57,1.24,73.45,229.76,32.12-4.71,26.28-1.58l-30-76.57L8.2-14.46-2.54-21.53-25.45-51.77l165,326.55L92,179.54l50.37,69.17L75.42,146.45,59.83,125.23l98,107.73,3.58-6.61L-70.25,6.54,31.27,100.9l46.64,36.78L-6.68,79.4l144.42,91.48,14.33,2.51,17.15,2.33L-4.58,96.59,100.55,138,35,115.62l82.45,22L-92.87,92.42l90.44,21.12,104.35,13.28-222.39-13.09-11.05,8.71,289.89-4.93L-29.64,131,92.42,117.25l64.83-14.74L30.79,129.15-76.71,163.4l257.1-85.29L62.24,120.42l-98.75,46.76,162.39-81.6-171.3,98.88L106.66,89.37,78.78,106.56l-117.43,95,92.52-75.83L29.49,150.46l-54.59,63L133.33,30.31,24.65,166.62,138.86,1.35-13.8,240.79l47.56-74.12L8.16,226.13,108.53.28-6,298.85,44.73,164.37,16.92,283.63,71.17,54.1l1-30.36-1.24-37.8L51.76,239.6,57.5-18.55l2.72,196.49L40.43-51,56.86,118.19l0,.93L32.1,21.73,45.17,82.2,8.82-12.5l94.7,245.33,12.55,12.66L81.2,166.59l13.09,16.94L18.11,63.87-46.73-17.45l126,166.35L154,228.8-10.7,54.26l-41-30.9L158.87,205.82l65.87,41.09L-4.56,80.72l135.41,85.89L85.43,137.42-59.26,66.77-38,82.53-99.45,65.84l208.58,72.34,36,6.32,51.35,5.69-270.7-47.33,182.27,24.56,6.23-2.19-67.07-2.79,188.06-8.69-6.58-8.15L242.9,94.9l-91,8.71L-84,158.12,86.31,113.68l56.17-21.82L-20.45,155-88.1,191.87l135.68-64L-16.21,167,181.14,39.45-72.76,219.5l97-69.62L150.78,37.79,76.52,103.42-57.67,249.34l232.91-270-116.9,142L73.52,98.51,136.85-9.25-20.68,267.64l54.47-95.53L17.62,217.9,118.32-46.43,98.74-12.72l.51-30.66L24.57,287.2,53.78,147.41l22-211.1L62,30.37Zm0,69.4L57,176.68,45.86,69.18,72.94,291.3,32.74,63.4,27,66.45-2.15-8,9.42,53.94-1,47.07-23.33,17.7,137,335.11,90.79,242.55l48.94,67.24L74.64,210.4,59.47,189.8l95.25,104.73,3.46-6.42L-67,74.48l98.66,91.73L77,202-5.26,145.35,135.1,234.28,149,236.74,165.67,239-3.27,162.14,98.91,202.41,35.23,180.68,115.36,202-89.11,158.17l87.9,20.55,101.42,12.93L-115.94,179l-10.75,8.49,281.77-4.77L-27.66,195.83,91,182.46l63-14.3L31.09,194.07-73.39,227.39l249.9-82.88L61.68,185.65l-96,45.48,157.85-79.3L-42.94,248l147.84-92.4L77.81,172.28-36.31,264.62l89.94-73.68L30,215l-53,61.28,154-178L25.3,230.75l111-160.62L-12,302.87l46.24-72L9.35,288.64,106.92,69.13-4.4,359.34,45,228.64,18,344.56,70.69,121.47,71.7,92,70.52,55.22,51.9,301.78,57.5,50.87l2.66,191L41,19.33,57,183.77l0,.9L32.93,90l12.73,58.77L10.34,56.71l92.07,238.45,12.22,12.3-33.87-76.7,12.73,16.46-74-116.33-63-79L78.92,213.51l72.71,77.65L-8.46,121.49l-39.82-30L156.39,268.77l64,39.93L-2.44,147.15l131.63,83.46L85.06,202.22-55.57,133.53l20.63,15.3-59.68-16.24,202.75,70.28,35,6.12L193,214.5l-263.11-46,177.16,23.85,6.06-2.16L48,187.44,230.75,179l-6.4-7.94,13.81-10.43-88.49,8.45L-79.61,222,85.94,178.79l54.59-21.23L-17.84,218.94l-65.77,35.79L48.26,192.47l-62,38L178.06,106.52l-246.8,175L25.5,213.81l123-109-72.2,63.78L-54.13,310.45,172.23,48,58.6,185.92,73.33,163.8,134.86,59-18.27,328.17,34.65,235.3,18.92,279.8,116.77,22.87l-19,32.76.47-29.81L25.59,347.13,54,211.25,75.36,6.07,61.91,97.48ZM302,283.6l.22-158.39L323.6,231.15,268.84,14.41l78.58,217.43,9.67-6.5,54.08,60.16-24.41-59.56,16.78-1.48L440.63,237,155.71,24.7l82.13,63.7-79.7-25.51,108.35,49.2,24.19,8.59L149.63,108l1.52,15,309.72-15.63L326.49,118.06l-55.83,14.47,93.26-35.4L214.72,170l-6.05,15.71-5.75,18.85L342.53,82.41l-73.91,81.1,41.6-52.84L269.68,183,356.28-7.19,316.84,74.3l-24.92,99.07L318.18-41.41,302-52.74l10.4,281.37L286.91,47.36l27.48,116.09L343.2,221.6,293.15,106.45l-62.7-90.06,157.37,210.8-76.59-95L230.05,63.77l141.3,105.76L206.2,71.43l156.35,76.8-28.2-15.39-143.16-32,114.06,22.45-33.73-.32-80.45,10.92L423.6,98.65,258.5,136.21l181.75-71L190.81,182.77l77.34-37.11L222,188.75,398.67,26.25,191.34,257.47l91.41-105.82-53.47,106.5L331.2,53l1.49-30.52-3-38.17L291.62,228.4Zm-114-117,.23-156.34,21.11,104.57L155.29-99.09l77.59,214.61,9.54-6.42,53.4,59.38-24.09-58.79,16.57-1.47,36.62,12.35L43.69-89,124.76-26.1,46.09-51.29l107,48.55,23.87,8.47L37.7-6.85,39.2,7.94,344.92-7.5,212.27,3.1,157.16,17.38l92.05-35L102,54.3,96,69.79,90.28,88.4,228.08-32.14l-73,80L196.17-4.26l-40,71.36,85.47-187.7L202.67-40.17l-24.6,97.78,25.91-212-16-11.18,10.26,277.73L173.09-66.76,200.2,47.83l28.43,57.4L179.21-8.43,117.32-97.31,272.64,110.76,197,17,116.9-50.53,256.37,53.87l-163-96.82L247.67,32.86,219.84,17.68,78.53-13.92,191.11,8.25,157.81,8l-79.4,10.8L307.92-16,145,21.08,324.36-49,78.16,67.05l76.35-36.63L109,73,283.34-87.42,78.7,140.81,168.94,36.36,116.17,141.48,216.79-61l1.48-30.12-2.94-37.67L177.74,112.14Zm-65.5,58L123,68.28l11,106.11L107.29-44.85,147,180.09l5.63-3,28.83,73.45L170,189.42l10.33,6.78,22,29L44.1-88.12,89.76,3.24,41.46-63.14,105.71,35l15,20.34-94-103.38-3.42,6.32L245.56,169.09,148.18,78.54,103.46,43.23l81.17,55.88L46.09,11.32,32.36,8.89,15.92,6.62,182.68,82.51,81.83,42.75l62.86,21.44L65.6,43.09,267.42,86.38,180.66,66.09,80.55,53.32,293.91,65.84l10.61-8.4L26.4,62.14l180.37-13L89.66,62.33,27.46,76.44,148.77,50.85,251.9,18,5.23,99.76,118.57,59.14l94.73-44.9L57.48,92.49,221.82-2.4,75.89,88.8l26.73-16.51L215.26-18.87,126.48,53.85,149.84,30.1l52.35-60.5-152,175.72L154.41,14.53,44.82,173.06,191.25-56.67,145.59,14.42l24.53-57L73.8,174,183.67-112.42,135,16.58,161.59-97.85,109.52,122.36l-1,29.12,1.15,36.26L128-55.62,122.5,192,119.86,3.53l19,219.64L123,60.86V60l23.68,93.45-12.57-58L169,186.28,78.09-49.07,66-61.21,99.44,14.5,86.86-1.74l73.06,114.83,62.17,78L101.22,31.55,29.44-45.09l158,167.48,39.29,29.67L24.73-23-38.49-62.36l220,159.46L51.56,14.73l43.55,28,138.8,67.81L213.54,95.48l58.9,16L72.33,42.16l-34.56-6-49.26-5.44,259.7,45.45L73.34,52.6l-6,2.14,64.35,2.7L-48.72,65.82l6.32,7.85L-56,84l87.34-8.33L257.63,23.38,94.22,66.05,40.34,87,196.67,26.44,261.58-8.88,131.43,52.58l61.21-37.49L3.33,137.44,246.94-35.27l-93,66.82L32.51,139.12l71.27-62.95,128.76-140L9.12,195.28,121.29,59.12,106.76,81,46,184.37,197.19-81.27,145,10.4,160.5-33.51,63.93,220.09l18.81-32.33-.45,29.42L154-100,126,34.16,104.85,236.69l13.29-90.24Zm-.5-64.73.26-149.35,20.2,99.88L90.86-94,165,111l9.15-6.15,51,56.71-23-56.18L218.07,104l35,11.77L-15.56-84.43l77.47,60L-13.23-48.5,89-2.16l22.82,8.05-133-12,1.43,14.09L272.26-6.84,145.54,3.25,92.89,16.85,180.8-16.58,40.11,52.05,34.38,66.83,28.93,84.57,160.54-30.6,90.81,45.84,130-4,91.74,64.14l81.61-179.33L136.12-38.36,112.58,55,137.3-147.49,122-158.17l9.76,265.32L107.68-63.77,133.55,45.7l27.13,54.85L113.44-8,54.28-92.9,202.63,105.88,130.38,16.33,53.81-48.14,187,51.62,31.27-40.84l147.4,72.45-26.6-14.47L17.07-13,124.61,8.2,92.8,8,17,18.28,236.21-14.88,80.54,20.59l171.4-66.91L16.75,64.57l73-35L46.24,70.29,212.83-82.91,17.37,135.15,103.6,35.39,53.22,135.83,149.36-57.58l1.44-28.76-2.77-36L112.17,107.84Zm65.5,58,.55-149.35L198.57,169.9,173.08-39.55,211,175.33l5.42-2.88L244,242.61l-10.86-58.39,9.9,6.45,21.07,27.69L113-81,156.6,6.29,110.49-57.13,171.9,36.55,186.24,56,96.46-42.83l-3.23,6L305.6,164.6l-93-86.53L169.9,44.3l77.56,53.36L115.14,13.76,102,11.41,86.36,9.21,245.67,81.67l-96.33-38L209.4,64.1,133.86,43.91,326.67,85.23,243.79,65.81,148.16,53.57,352,65.5l10.14-8.06L96.43,61.9,268.74,49.45,156.86,62,97.43,75.45,213.31,51l98.51-31.46L76.17,97.62,184.43,58.78,274.9,15.85,126,90.58,283-.1,143.59,87l25.51-15.8L276.68-15.93,191.84,53.52l22.3-22.72,50-57.82L118.87,140.82l99.55-125L113.7,167.28,253.55-52.2,209.91,15.69,233.3-38.82l-92,207L246.19-105.52,199.6,17.7,225-91.62,175.24,118.73l-1,27.82,1.07,34.63L192.82-51.3,187.5,185.29,184.94,5.21,203,215,187.88,60l0-.84,22.59,89.27L198.4,93l33.25,86.82L144.8-45,133.23-56.57l31.9,72.34L153.08.28,222.84,110l59.36,74.57L166.7,32.14,98.11-41,249,119l37.51,28.36L93.53-19.84,33.12-57.45,243.23,94.92,119.1,16.26l41.59,26.81,132.58,64.81L273.79,93.5l56.26,15.36L138.86,42.63l-33-5.73L58.78,31.75,306.86,75.19,139.8,52.75l-5.72,2.08,61.47,2.61-172.35,8,6,7.53-13,9.87L99.66,75,315.87,25.08,159.78,65.88,108.32,85.94,257.67,28.11l62-33.71L195.38,53.15l58.49-35.79L73,134.28l232.74-165L217,33.18,101,136,169.1,75.85l123-133.69L78.72,189.69l107.19-130L172.05,80.52l-58,98.81L258.51-74.42,208.64,13.17l14.88-41.93L131.3,213.51l18-30.87-.4,28.12,68.51-303L190.7,35.93,170.57,229.41l12.73-86.2ZM57.5,103.63,56.93,242l-9.8-93.88,23.55,194-35.21-199-5.08,2.68L4.8,80.78l10,54.1-9.23-6L-14,103.31,126,380.56,85.5,299.78l42.65,58.77L71.22,271.82,57.89,253.89,141,345.41l2.95-5.53L-52.78,153.38l86.09,80.19,39.51,31.32L1,215.52l122.53,77.76,12.1,2.23,14.5,2.09L2.5,230.55l89.19,35.26L36.05,246.93l70,18.76L-72.59,227.47,4.16,245.52l88.56,11.39-188.78-11-9.39,7.51,246.08-4.06L-18.95,261,84.68,249.4l55-12.39L32.41,259.74l-91.22,29.19,218.28-72.28-100.25,36-83.77,39.81,137.9-69.16L-32,307.37,97.16,226.76l-23.6,14.68L-26,322.17,52.58,257.9,32,279l-46.26,53.59L120.29,177.16,28.14,292.94l97-140.21L-4.3,356l40.47-62.85L14.56,343.71l85.3-191.66L2.73,405.53,45.94,291.42,22.45,392.69,68.61,197.87l1-25.75-.93-32.07L52.51,355.38l5-219.12L59.93,303,43.26,108.71,57.32,252.3l.09.77-20.86-82.7,11.21,51.3L17,141.24,97.51,349.45l10.77,10.7-29.49-67L90,307.44,25.45,205.79l-54.93-69.1,107,141.13,63.58,67.75L1.37,197.32-33.33,171l178.8,154.8,56,34.79L6.89,219.41l115,72.81L83.41,267.33-39.36,207.25l18.07,13.27-52.09-14.28,177.09,61.28,30.6,5.25,43.61,4.72-229.76-40.3,154.73,20.73,5.3-2-56.93-2.48,159.63-7.51-5.59-7,12-9.2L140.05,237-60.22,283.12,84.34,245.28,132,226.64-6.37,280.15l-57.47,31.16L51.28,256.85-2.93,289.94,164.52,181.61-51.08,334.34l82.24-59.19,107.37-95.24L75.41,235.54l-114,123.77L159,130,59.7,250.43l12.78-19.37,53.66-91.54L-7.69,374.5l46.13-81.15L24.6,332.17,110,107.75,93.23,136.33l.31-26.06L30,390.85,54.71,272.17,73.3,93,61.45,172.79Zm130-139L186.86,103,180.17,8.81l15.16,194.86L171.93,2.9l-3.66,2L151-62.52l6.24,54.4-6.57-7.53L137.06-44.4l94.13,296-27.5-86,29.14,66.45-39.19-96-9.44-20.25L242.29,224.9l2.35-3.56L104.57-10.8,165.63,89.74,194,131.46,141.14,62.08l90.18,113.71,9.39,7.28,11.44,8.36L139.69,74.66l68.5,67.16-43.58-39.44L220,149.1,75.9,36.8l61.25,49.56,73.11,51.3L50.14,37,39.44,37l214.4,120.92L111.4,84.94l93.84,45.52,52.35,20.94-101.8-40.88L64.72,80.89l218.89,70.53-102-30.59L91.17,100.12l150.73,33L76.46,104.28,227,127.52l-27.48-4L71.55,115l101.3,7-29.49.48-70.66,3.7,205.4-9.48L130.53,128,299.89,107.9,61.38,143.09l74-10.32L82.32,146.84,286,96.25,25.1,171.54l117.21-33.77-96.72,38,186.88-71.92,22.63-12L282.51,75.6,90.44,174.35,282,67.83,138.54,152.92,301.73,46l-119.81,80.4-.48.65,66.07-53.94-41.06,32.66,62.23-59.45L108.3,201.68l-7.06,12.88,51.29-52.23-10.1,15,75.15-94.11,50.07-72.62L165.51,155.36l-47.95,79.55L223.17,60.66l18.35-39.32L133.6,231.82l-23.4,61.43L207.72,73.5,158.24,200.33l17.25-42.45,40.67-130.5-8.79,20.28,9.64-53-40.44,183-3.16,30.82-2.8,43.64L197.34,20.37,184,175.94l1.57,5.23,1.9-57,5.18,159.73,4.89-5.31,6.33,12.62-4.48-77.4L169.28,10.53l25.24,147.29,12.69,49.54L171.78,63.29,151,1.42l36.86,121.9L165.52,63.86,239.87,249,135,6.42,176,99l66.93,127-38.7-74.69-88-143.45L280.81,262,194.35,132l14.44,18.18L277,231.43,102.1,25.14,162.75,96,132.83,67.8l173.56,166-20.8-25.31,22.24,12.74L82.7,42l95.93,74.07L328.24,216.5l-65.36-47.18L316.66,197l-156-88.89L94.58,76.66l-7.24.47,111.41,50L359,186.83l-173.31-65L86.33,91.94l5.22,5L124.85,108l185,38.59-66.92-15.05L117.3,113.38l177.54,19.5,38.71-1-224-11.9,220.34,2.47-31.43-3.56-49.17-.44-4.9-1.55-15.9.18,98.26-17.42L100,139.64l147.72-31.19-101,24.83L340.45,76.2,75.14,160.44,184.5,123.55,289.65,80.16,222,106.79,178.4,126.92l30.11-15.71-84.38,47.85-53,35.82L339.26,21,303.57,39.19,222.66,95.45,114.83,182.14l1.53,2.74L259.29,55.17l-49.52,45-84.23,88.44,41.39-42.71,33.83-39.62L289.43-10.38l-12.6,8.19L274.54-7.8l-140,215.34,47.27-75.29L193.11,112l.94-2.79,34.69-77.83L176.21,149.8,214.82,49.73,152,227.46l44.6-135.11.12-4.47L175.16,176,207.52,21,211-21.14,180.43,177.25,191,87.13l-6.41,81.77,5.81-135.29Zm65,73L251.93,176l-9.8-93.88,23.55,194-35.21-199-5.08,2.68-25.59-65,10,54.1-9.23-6L181,37.31,321,314.56,280.5,233.78l42.65,58.77-56.93-86.73-13.33-17.93L336,279.41l2.95-5.53L142.22,87.38l86.09,80.19,39.51,31.32L196,149.52l122.53,77.76,12.1,2.23,14.5,2.09-147.58-67,89.19,35.26-55.64-18.88L301,199.69,122.41,161.47l76.75,18.05,88.56,11.39-188.78-11-9.39,7.51,246.08-4.06L176.05,195,279.68,183.4,334.73,171,227.41,193.74l-91.22,29.19,218.28-72.28-100.25,36-83.77,39.81,137.9-69.16L163,241.37l129.16-80.61-23.6,14.68L169,256.17l78.62-64.27L227,213l-46.26,53.59L315.29,111.16,223.14,226.94l97-140.21L190.7,290l40.47-62.85-21.61,50.52,85.3-191.66L197.73,339.53l43.21-114.11L217.45,326.69l46.16-194.82,1-25.75-.93-32.07L247.51,289.38l5-219.12L254.93,237,238.26,42.71,252.32,186.3l.09.77-20.86-82.7,11.21,51.3L212,75.24l80.51,208.21,10.77,10.7-29.49-67L285,241.44,220.44,139.79l-54.93-69.1,107,141.13,63.57,67.75L196.37,131.32,161.67,105,340.47,259.8l56,34.78L201.89,153.41l115,72.81-38.49-24.89L155.64,141.25l18.06,13.27-52.08-14.28,177.09,61.28,30.6,5.25,43.61,4.71L143.16,171.19l154.73,20.72,5.3-2-56.93-2.49,159.63-7.5-5.59-7,12.05-9.21L335.05,171,134.79,217.12l144.55-37.84L327,160.64,188.63,214.15l-57.47,31.17,115.12-54.47-54.21,33.09L359.52,115.61,143.93,268.34l82.24-59.19,107.36-95.24-63.12,55.63-114,123.78L354,64,254.7,184.43l12.78-19.37,53.66-91.54-133.83,235,46.13-81.15L219.6,266.17,305,41.75,288.23,70.33l.31-26.06L225,324.85l24.67-118.68L268.3,27l-11.85,79.83Zm0,67-.57,137.33-9.74-93.2,23.37,192.6-35-197.58-5,2.67-25.41-64.5,9.92,53.71-9.16-5.91-19.43-25.43L320.42,379.54l-40.19-80.2,42.35,58.36-56.53-86.11-13.23-17.8,82.5,90.88,2.93-5.49L142.92,154l85.47,79.62,39.23,31.1-71.36-49,121.64,77.2,12,2.22,14.4,2.08L197.79,230.66l88.55,35-55.25-18.74,69.45,18.63L123.23,227.64l76.19,17.92,87.93,11.32L99.92,246l-9.31,7.47,244.31-4L176.48,260.93l102.88-11.48L334,237.15,227.48,259.72l-90.57,29L353.62,217,254.1,252.73l-83.17,39.53L307.85,223.6,163.54,307l128.24-80L268.35,241.6l-98.88,80.15L247.52,258l-20.46,20.93-45.91,53.21L314.77,177.8l-91.49,115,96.35-139.2L191.08,355.41,231.27,293l-21.46,50.16,84.7-190.29L198.09,404.55,241,291.26,217.67,391.8l45.84-193.41,1-25.57L263.57,141l-16,213.79,5-217.55,2.41,165.58L238.38,109.86l14,142.57.1.76-20.71-82.11L242.87,222l-30.52-79.85,79.92,206.71L303,359.49,273.7,292.94l11.14,14.21-64.1-100.92-54.53-68.61L272.47,277.74,335.59,345,196.86,197.81l-34.45-26.13L339.93,325.35l55.59,34.53L202.35,219.72,316.54,292l-38.21-24.71L156.44,207.63l17.94,13.17-51.71-14.18,175.82,60.84,30.38,5.2,43.3,4.68-228.11-40,153.62,20.57,5.27-2-56.53-2.47L404.91,246l-5.56-7,12-9.15-76.75,7.22L135.74,282.88l143.52-37.57,47.3-18.51L189.2,279.91l-57.07,30.93,114.29-54.07L192.6,289.62,358.85,182.06l-214,151.63,81.65-58.77L333,180.36l-62.68,55.22L157.18,358.47,353.37,130.82,254.76,250.36l12.68-19.24,53.27-90.89L187.83,373.52,233.62,293l-13.74,38.54,84.75-222.81L288,137.05l.3-25.87L225.26,389.75l24.49-117.84L268.2,94l-11.77,79.25Zm0-131-.57,137.33-9.74-93.2,23.37,192.6-35-197.58-5,2.67-25.41-64.5,9.92,53.71-9.16-5.91L181.48-26.72,320.42,248.54l-40.19-80.2,42.35,58.36-56.53-86.11-13.23-17.8,82.5,90.88,2.93-5.49L142.92,23l85.47,79.62,39.23,31.1-71.36-49,121.64,77.2,12,2.22,14.4,2.08L197.79,99.66l88.55,35-55.25-18.74,69.45,18.63L123.23,96.64l76.19,17.92,87.93,11.32L99.92,115l-9.31,7.47,244.31-4L176.48,129.93l102.88-11.48L334,106.15,227.48,128.72l-90.57,29L353.62,86,254.1,121.73l-83.17,39.53L307.85,92.6,163.54,176,291.78,96,268.35,110.6l-98.88,80.15L247.52,127l-20.46,20.93-45.91,53.21L314.77,46.8l-91.49,115,96.35-139.2L191.08,224.41,231.27,162l-21.46,50.16,84.7-190.29L198.09,273.55,241,160.26,217.67,260.8,263.51,67.39l1-25.57L263.57,10l-16,213.79,5-217.55,2.42,165.58L238.37-21.14l14,142.57.1.76L231.73,40.08,242.87,91,212.35,11.16l79.93,206.71L303,228.49,273.7,161.93l11.14,14.22L220.74,75.23,166.21,6.63,272.47,146.74,335.59,214,196.86,66.81,162.41,40.68,339.93,194.35l55.6,34.53L202.35,88.72,316.54,161l-38.21-24.71L156.44,76.63,174.38,89.8,122.67,75.62l175.82,60.84,30.38,5.2,43.3,4.68-228.11-40,153.62,20.57,5.27-2-56.53-2.48L404.91,115l-5.56-7,12-9.14-76.74,7.22L135.75,151.88l143.51-37.57,47.3-18.52L189.2,148.91l-57.06,30.94,114.29-54.08L192.6,158.62,358.85,51.06l-214,151.63,81.65-58.77L333,49.36l-62.67,55.22L157.18,227.47,353.37-.19,254.76,119.36l12.68-19.24L320.7,9.23,187.83,242.53,233.63,162l-13.75,38.54L304.63-22.32,288,6.05l.3-25.87L225.26,258.75l24.49-117.84L268.2-37,256.43,42.25Zm49.5,74-.3,137.33L283.06,93.08l47.39,188L262.21,92.55l-8.48,5.68-47-52.11,21.08,51.7L213.2,99.18,181,88.4,428,272.53,356.69,217.4l69.07,22.2-94-42.55-21-7.34,122.28,11.13L431.73,188,163.19,201.61l116.53-9.22,48.44-12.45-80.83,30.8,129.4-63.05,5.3-13.53,5.06-16.27-121,106,64.16-70.25-36,45.87,35.24-62.63-75,164.92,34.3-70.62,21.7-85.87L287.87,331.51,302,341.34l-8.91-244,22.2,157.15L291.57,153.84l-24.89-50.45,43.5,99.8,54.45,78L228.26,98.38l66.49,82.31,70.45,59.23L242.75,148.14l143.25,85L250.48,166.43,275,179.67l124.15,27.67-98.88-19.57,29.25.17,69.75-9.58L197.61,208.82l143.13-32.69L183.11,237.6l216.23-102-67.11,32.09,39.93-37.45L218.93,271,398.63,70.48l-79.35,91.7,46.28-92.39L277.08,247.6,275.69,274l2.49,33.07L311.11,95.45ZM252.5-74.52l-.6,119.81L243.3-36l20.29,168L233-40.32,228.49-38,206.22-94.21l8.56,46.89-8.09-5.12-17-22.14L310.76,165.59,275.61,95.68l36.85,51L263.07,71.58,251.44,56.12l71.89,79.34,2.48-4.71L155.35-30.7l74.5,69.53L264,66,201.69,23.38,307.74,90.81l10.43,2,12.51,1.9-127.85-58L280,67.41,231.81,51.16l60.55,16.35-154.69-33,66.45,15.74,76.69,10L117.3,50.82l-8.13,6.62L322.29,54,184.09,64.18l89.76-9.91,47.7-10.63L228.63,63.43l-79,25.39,189.08-62.5L252,57.62,179.44,92.2,298.92,32.41,173.09,105.28,285,35.56,264.64,48.37l-86.2,70L246.6,62.79,228.82,81.12l-40,46.49L305.48-6.91,225.75,93.43,309.89-27.94l-112,176.13L233,93.81l-18.63,43.81,74-165.95-84,219.57,37.51-98.79-20.23,87.73L261.69,11.49l1-22.29L262-38.56,248.07,147.93,252.5-41.84l2.21,144.45L240.38-65.71,252.67,58.64l.18.65-18-71.65L244.71,32,218.18-37.65,288,142.63l9.43,9.22L272,93.75l9.81,12.35L226,18,178.48-41.9,271.25,80.26l55.14,58.61L205.45,10.4l-30-22.87,154.93,134,48.55,30L210.51,29.2l99.66,63L276.88,70.51,170.61,18.38,186.3,29.77,141.23,17.3l153.41,53,26.52,4.44,37.79,4-199-35L294,61.53l4.6-1.82-49.3-2.26,138.24-6.61-4.85-6.21,10.42-8.08-67,6.2L152.7,82.61,277.86,49.73l41.23-16.24L199.23,79.73l-49.82,26.89,99.65-47.27-47,28.57L347-6,160.24,126.19,231.4,74.84,324.31-7.72,269.57,40.37,170.76,147.5,341.83-51.15,255.72,53.06l11-16.84,46.38-79.34-116,203.46L236.93,90l-12.08,33.57,73.83-194.4L284.09-46.1l.16-22.6-55.11,243L250.41,71.47l16-155.21L256-14.61Zm-130,122-.66,119.8-5.91-81.53,13,168.77L108.58,80.65l-3.27,1.79L90.24,24l5.3,47.14-5.8-6.5L77.86,39.81l81.42,256.4-23.91-74.45,25.13,57.58-34-83.13-8.27-17.49,50.21,94.56,1.94-3-121.4-201,52.8,87.13,24.45,36.19-45.84-60,78,98.55,8,6.37,9.83,7.32L78.77,143.74,138,202,100.21,167.9l47.87,40.55L23.24,111.28l53,43,63.25,44.52L.75,111.73l-9.32,0L177.06,216.59,53.65,153.51,134.87,193l45.3,18.24L92,176,13.06,150.4,202.6,211.59l-88.39-26.4L35.88,167.36,166.39,196,23.1,171.18l130.32,20.23-23.81-3.32L18.8,180.74l87.73,6.17L81,187.44,19.8,190.75l177.89-8.1L69.9,192.58l146.68-17.31L10,205.86,74.15,197,28.21,209.32l176.38-43.71L-21.29,230.92,80.26,201.77l-83.73,33,161.88-62.18,19.64-10.31,23.79-14L35.54,234l166-92.16L77.31,215.57,218.7,123.1,115,192.82l-.35.65,57.28-46.63L136.45,175.2l54-51.4L51.58,258.39l-6,11.23,44.5-45.16-8.67,13.09,65.17-81.44L190,93.28l-88.37,125.4-41.44,69,91.56-150.86,16-34L74.36,285.12,54.2,338.37l84.55-190.28L96,258l15-36.73,35.33-113-7.51,17.6L147.31,80,112.39,238.51l-2.63,26.71L107.45,303,130.7,102.31,119.28,237.05l1.47,4.53,1.75-49.33,4.6,138.34,4.33-4.6L137,336.91l-3.77-67.05-26-176.1,22,127.54,11.09,42.88-30.58-124.8L91.82,85.77l32,105.54-19.22-51.53,64.49,160.27L78.36,90,114,170.12,172,280,138.6,215.31,62.48,91,205.14,311,130.35,198.39l12.59,15.68,59.17,70.3L50.7,105.64,103.31,167,77.48,142.44,227.86,286.1l-17.94-22,19.33,10.94L34.34,119.78l83.15,64.07,129.63,86.87-56.55-40.94,46.64,23.88-135-77.07L45,149.25l-6.23.31,96.54,43.19,138.79,51.61L124,188,38,162l4.55,4.23,28.87,9.47L231.68,209l-57.93-13.14L65,180l153.78,16.79,33.53-1-194-10.41,190.83,2-27.21-3.19-42.6-.49-4.25-1.45-13.79.05,85.09-15.19L49.94,201.7l127.92-27.12L90.32,196,258.1,146.44,28.3,219.3,123,187.24l91-37.67-58.61,23-37.82,17.34,26-13.71L70.46,217.51l-46,30.93L256.66,97.72l-31,15.71-70.13,48.63-93.46,75,1.26,2.29L187.07,126.94l-43,38.89-73,76.52,35.77-37.06,29.21-34.38,76.72-101.1-11,7-2.06-4.92L78.4,258.35l40.84-65.26,9.67-17.63.72-2.47,29.94-67.45L114,208.1l33.34-86.71L92.82,275.28l38.53-117v-3.9l-18.8,76.27L140.48,96.4l2.89-36.55-26.56,171.8,9-78.06-5.66,70.81,4.93-117.17Zm0,74-.6,119.81L113.3,160l20.29,168L103,155.68,98.49,158,76.22,101.79l8.56,46.89-8.09-5.12-17-22.14L180.76,361.59l-35.15-69.91,36.85,51-49.39-75.06-11.63-15.46,71.89,79.34,2.48-4.72L25.35,165.3l74.5,69.53L134,262,71.69,219.38l106.06,67.43,10.42,2,12.51,1.9-127.85-58L150,263.41l-48.22-16.25,60.55,16.35-154.69-33,66.45,15.74,76.69,10-163.51-9.4-8.13,6.61L192.29,250,54.09,260.18l89.76-9.91,47.7-10.63L98.63,259.43l-79,25.39,189.08-62.5L122,253.62,49.44,288.2l119.48-59.8L43.09,301.28,155,231.56l-20.37,12.81-86.2,70,68.16-55.58L98.82,277.12l-40,46.49L175.48,189.09,95.75,289.43l84.14-121.38-112,176.14L103,289.81,84.36,333.62l74-166-84,219.57,37.51-98.79L91.61,376.18,131.7,207.49l1-22.29-.7-27.76L118.07,343.93l4.43-189.77,2.21,144.45L110.38,130.29l12.29,124.35.18.65-18-71.65,9.82,44.4L88.18,158.35,158,338.63l9.43,9.22L142,289.75l9.81,12.35L96,214,48.48,154.1l92.77,122.16,55.14,58.61L75.45,206.4l-30-22.87,154.93,134,48.56,30L80.51,225.2l99.66,63-33.29-21.65L40.61,214.38,56.3,225.77,11.23,213.3l153.41,53,26.52,4.44,37.79,4-199-35,134,17.84,4.6-1.83-49.3-2.26,138.24-6.6-4.85-6.21,10.42-8.08-67,6.2L22.7,278.61l125.16-32.88,41.23-16.24L69.23,275.73,19.41,302.62l99.65-47.27-47,28.57L217,190,30.24,322.19l71.16-51.35,92.91-82.56-54.74,48.09L40.76,343.5,211.82,144.84l-86.1,104.22,11-16.84,46.38-79.34-116,203.46L106.94,286,94.85,319.58l73.83-194.4L154.09,149.9l.16-22.6-55.1,243,21.26-102.81,16-155.21L126,181.39Zm0-130.73L121.83,102l-5.54-75.69,12,156.69-19-161.41-3.1,1.67L92.21-31l4.86,43.78-5.44-6L80.55-16.3l75.53,238.06-22.25-69.1,23.28,53.48L125.45,129l-7.73-16.22,46.57,87.82L166,197.8,53.28,11.23l49,80.93,22.65,33.63L82.3,70.09l72.39,91.54,7.42,6,9.09,6.83L80.66,80.62l55,54.12-35.14-31.59,44.4,37.68L29,50.66l49.15,40L136.81,132,8,51.22l-8.68.1,172.32,97.36L57,90.17l75.38,36.74,42,17L92.51,111.16,19.23,87.49l176,56.86L113.11,119.9,40.37,103.4l121.16,26.68-133-23,121,18.85-22.12-3L24.48,116.11l81.44,5.78-23.71.55L25.4,125.57l165.15-7.46L71.92,127.39l136.18-16L16.36,139.82l59.53-8.14L33.25,143.15,197,102.63-12.67,163.32l94.29-27L3.9,167l150.32-57.68,18.26-9.52,22.1-12.92L40.22,166.45,194.35,80.93,79.05,149.48l131.3-85.8-96.24,64.77-.29.65L167,85.86l-32.91,26.38,50.14-47.68-128.85,125L49.86,200l41.35-41.89-8,12.19,60.55-75.57,40.38-58.3-82,116.46L63.73,217l85.05-140,14.89-31.54L77,214.7,58.36,264.16,136.92,87.53l-39.64,102,14-34.08L144.15,50.6,137.23,67l7.9-42.55L112.77,171.58l-2.38,24.8-2.09,35.11L129.94,45.15l-10.55,125.1,1.43,4.21,1.68-45.8,4.33,128.43,4.08-4.27L136.15,263l-3.44-62.25L108.63,37.2l20.45,118.4,10.36,39.8L111.1,79.52,94.53,29.73l29.78,98L106.52,79.84l59.92,148.77L82.24,33.53l33.11,74.4,54,102-31-60.13L67.7,34.41,200.19,238.62,130.81,134l11.74,14.52,55,65.23L57,47.82l48.88,56.89L81.94,81.9,221.6,215.24,205,194.77l18,10.12L42.05,60.69l77.23,59.44,120.37,80.61-52.46-38.07,43.32,22.13L105.18,113.19,52.09,87.76,46.34,88,136,128,264.86,175.9,125.57,123.51,45.75,99.31,50,103.18l26.81,8.74L225.59,142.8l-53.78-12.26-101-14.76,142.78,15.53,31.13-1L64.65,120.61l177.17,1.83-25.27-3L177,118.91l-3.95-1.4h-12.8l79-14.16-182.38,32L175.61,110.1,94.32,129.91l155.75-46L36.71,151.45l87.87-29.81,84.49-35-54.43,21.27-35.15,16,24.14-12.78L75.71,149.48,33,178.15l215.51-140L219.73,52.71l-65.15,45.1-86.8,69.58,1.13,2.09L183.73,65.07,143.8,101.13,76,172.14l33.17-34.45,27.08-31.95,71.17-93.9-10.26,6.49-2-4.6L82.48,186.79l37.87-60.62,8.93-16.4.61-2.32,27.75-62.64L115.26,140l30.9-80.52L95.51,202.33,131.23,93.65l0-3.63-17.51,70.79L139.54,36.2l2.62-33.94L117.45,161.75l8.31-72.48L120.44,155,125,46.22Zm65,139L186.89,241l-8-75.47,18.77,156-28.46-160-4.24,2.19-20.73-52.19,7.9,43.55-7.57-4.73-15.87-20.53L241,352.8l-32.68-64.87,34.16,47.34-45.9-69.65L185.77,251.3l66.7,73.7,2.26-4.34L96.43,170.82l69.13,64.6,31.66,25.31-57.87-39.57,98.43,62.65,9.65,1.94L259,287.57,140.29,233.8,212,262.3l-44.79-15,56.2,15.23L79.73,231.93l61.68,14.67,71.19,9.32L60.8,247.24l-7.55,6.2,197.86-3.1-128.3,9.47,83.34-9.14,44.29-9.81-86.25,18.43-73.3,23.62,175.55-58L185.9,254.06l-67.3,32.16,111-55.47-116.8,67.71L216.7,233.78l-18.88,11.94-80,65,63.32-51.55-16.46,17.06-37.08,43.2L235.94,194.61,162,287.8l78.15-112.65-104,163.56,32.68-50.46-17.24,40.69,68.73-154L142.38,378.77l34.88-91.7-18.73,81.47,37.28-156.61.94-20.67-.59-25.77L183.33,338.63l4.17-176.18,2.11,134.1L176.37,140.29l11.46,115.43.23.6-16.62-66.53,9.17,41.2L156,166.27l64.87,167.35,8.81,8.54-23.57-54,9.15,11.44-51.78-81.81-44-55.66,86.18,113.38,51.23,54.37L144.65,210.6l-27.79-21.27L260.73,313.67l45.12,27.84L149.5,227.88l92.55,58.4-30.87-20.15-98.64-48.45,14.59,10.52L85.31,216.57,227.75,265.7l24.64,4.07,35.1,3.64L102.78,240.85l124.43,16.51,4.28-1.76-45.77-2.16,128.34-6.18-4.51-5.82,9.67-7.56L257,239.57,96,276.51l116.19-30.57,38.25-15.13-111.3,42.87L92.85,298.59l92.5-43.93-43.67,26.47,134.56-87.24L102.79,316.56l66-47.71L255,192.15l-50.86,44.61-91.77,99.42L271.17,151.71l-80,96.72,10.15-15.67,43-73.69L136.61,347.93l36.95-65.32-11.27,31.15,68.48-180.51-13.61,22.93.1-21L166.05,360.76l19.68-95.46,14.79-144.11-9.69,64.18Zm.5,81.33-.48,86-12-57.45,29.38,117.74-43-117.9-5.56,3.68-29.67-32.47,13,32.54-9.37,1-20.38-6.53L264.37,353.24,219.6,319l43.11,14.16-58.93-26.36-13.22-4.32,76.51,7.27-.84-7.79L98.12,310.79l73-5.48,30.39-7.51L151,317.36l81.14-39.21,3.47-8.22L239,260l-75.54,66.54,40.38-43.78-22.29,28.9,22.31-39.06L157.14,376l21.75-44.11,13.87-53.69L178.86,394.8,188,401l-5.29-152.75,14.19,98.34-14.56-63.1L167,251.77l27.5,62.35,34.34,48.7L143.74,248.18l41.83,51.34,44.31,36.86L153.4,278.69l89.82,52.94-84.71-42,15.43,8,77.79,17-61.86-12.54,18.33-.19,43.65-6.28L125.58,314.42l89.53-20.74-98.78,38.2,135.25-64.13-42.17,19.84,24.82-23.68-96.12,87.94L250.39,226.1l-49.91,57.23,28.72-58-55.65,111.2L172.4,353l1.28,20.63L194,241.06Zm-.5-131-.7,86-4.47-58.5,9.12,121.14L176.61,104,174,105.26,163,63.38l3.59,33.88-4.38-4.61-8.75-17.78L211.67,259l-17.38-53.36L212.12,247l-24.64-59.56L181.34,175l35.84,68,1.19-2.07L131.05,96.75l37.7,62.66,17.37,26.1L153,142.56l55.81,70.87,5.6,4.72,6.89,5.4-70.12-72.37,42.37,42L166.3,168.86l34.21,29.27-89.73-69.56,37.88,31.05,45.27,32.13-99.69-62.3-6.8.23L220.55,205.1,131.88,160l58.19,28.57,32.43,13.29-63.39-25.13L102.4,158.63l136,44.13L174.86,184l-56.27-12.58,93.62,20.8L109.34,174.64l93.49,14.75-17.11-2.16-79.54-5,62.95,4.66-18.33.6L106.88,190l127.68-5.59-91.7,7.36,105.3-12.2L100,201.79,146,195.67l-32.92,9.05,126.64-31.15-162,47.09L150.63,200l-60,23.91,116.26-44.41,14.19-7.19,17.16-9.83L119,224.08l119.23-65.94-89,53.15,101.59-66.18-74.29,50.22-.11.65,41.25-33.29-25.32,20.53,38.88-36.72-99.48,96.75-4.16,8.22,32.1-32.26-6.05,9.55,47-58.31,31.36-45-63.23,90.13-29.55,49.61L205,157.08l11.67-24.29-66.81,131-14.27,38.31,60.89-136.47-30.46,78.95,11-26.29,25.57-81-5.17,12.69,6.28-32.85L178.9,230.88l-1.67,19.21-1.44,27.16,16.92-144-8,96.72,1.29,3.26,1.48-35.4L191,297.09l3.33-3.31,4.24,7.82-2.48-48.15L177.69,127l16,91.5,8.18,30.73-21.73-89.62L167.49,121.1l23.2,75.67-13.58-37.06L223.6,274.65,158.68,123.78l25.76,57.44L226.3,260l-23.79-46.57-54.43-89.31L250.65,281.88l-53.49-80.95L206.39,212,249,262.36,140.54,133.94l37.92,43.86L160.08,160,268.17,263l-12.72-16,14,7.69L129.72,143.1l59.81,45.79,93.16,62.17-40.46-29.58,33.59,17L179,182.92l-41-19.83-4.38,0,69.37,30.79,99.7,36.83L195.14,190.06l-61.65-18.88,3.33,2.81,20.77,6.58,115,23.69-41.53-9.65L153.06,183l110.39,11.82,24.08-.93-139.19-7.7,137,1.23-19.54-2.52-30.58-.57-3.07-1.27-9.92-.19,61-11.12-141,24.55L234,176.64l-62.88,15.14L291.44,156l-165,52.07,67.87-23.22,65.24-27.25-42.15,16.28-27.24,12.23,18.57-10-52.59,29.48-33.1,22L289.54,119.2l-22.36,11.09L216.71,165,149.5,218.66l.76,1.47,88.63-80.84L207.9,167,155.33,221.8l25.5-26.75,20.79-24.82,54.88-72.7-8.08,4.91-1.67-3.66L159.5,232.46l29.12-47,6.74-12.77.32-1.87L217,122.36,184,195.87l23.72-62.31L168.43,243.93l27.43-84.07-.21-2.86-13.71,54.68,19.82-96.36,1.85-26.27L184.32,212.31l6.24-56.05-4.29,50.81L189.58,123Z" transform="translate(171.69 165.57)"/></g></g></g></svg>